<svg xmlns="http://www.w3.org/2000/svg" viewBox="0 0 100 100">
  <defs>
    <linearGradient id="gradient" x1="0%" y1="0%" x2="100%" y2="100%">
      <stop offset="0%" style="stop-color:#1a237e;stop-opacity:1" />
      <stop offset="50%" style="stop-color:#2196F3;stop-opacity:1" />
      <stop offset="100%" style="stop-color:#00BCD4;stop-opacity:1" />
    </linearGradient>
  </defs>
  
  <!-- Brain/AI Icon -->
  <circle cx="50" cy="50" r="45" fill="url(#gradient)"/>
  
  <!-- AI Spark/Star -->
  <g fill="white">
    <circle cx="50" cy="35" r="3"/>
    <path d="M50 25 L51 32 L50 39 L49 32 Z"/>
    <path d="M40 35 L47 36 L54 35 L47 34 Z"/>
    <path d="M43 28 L48 33 L53 38 L48 33 Z"/>
    <path d="M43 42 L48 37 L53 32 L48 37 Z"/>
  </g>
  
  <!-- Neural connections -->
  <g stroke="white" stroke-width="2" fill="none" opacity="0.8">
    <circle cx="35" cy="50" r="4"/>
    <circle cx="65" cy="50" r="4"/>
    <circle cx="50" cy="60" r="4"/>
    <line x1="35" y1="50" x2="50" y2="60"/>
    <line x1="65" y1="50" x2="50" y2="60"/>
    <line x1="50" y1="35" x2="35" y2="50"/>
    <line x1="50" y1="35" x2="65" y2="50"/>
  </g>
</svg>

